<?xml version="1.0" encoding="utf-8"?>
<svg width="267px" height="338px" viewBox="0 0 267 338" version="1.1" xmlns:xlink="http://www.w3.org/1999/xlink" xmlns="http://www.w3.org/2000/svg">
  <desc>Created By Aditya panther</desc>
  <g id="ERROR-ICON" transform="translate(0.5 0.5)">
    <path d="M0 139C0 62.2324 59.5461 0 133 0C206.454 0 266 62.2324 266 139C266 215.768 206.454 278 133 278C59.5461 278 0 215.768 0 139Z" transform="translate(0 58.941444)" id="Ellipse" fill="none" stroke="#808080" stroke-width="1" />
    <g id="error-indicator" transform="translate(156.5181 0)">
      <path d="M1.999 0L2.001 0Q2.0992 0 2.19694 0.00962573Q2.29467 0.0192515 2.39099 0.0384102Q2.4873 0.057569 2.58128 0.0860763Q2.67525 0.114584 2.76598 0.152165Q2.85671 0.189746 2.94332 0.236039Q3.02993 0.282333 3.11158 0.336892Q3.19324 0.391452 3.26915 0.453752Q3.34507 0.516052 3.41451 0.585494Q3.48395 0.654935 3.54625 0.730848Q3.60855 0.806761 3.66311 0.888415Q3.71767 0.970069 3.76396 1.05668Q3.81025 1.14329 3.84783 1.23402Q3.88542 1.32474 3.91392 1.41872Q3.94243 1.5127 3.96159 1.60901Q3.98075 1.70533 3.99037 1.80306Q4 1.9008 4 1.999L4 98.001Q4 98.0992 3.99037 98.1969Q3.98075 98.2947 3.96159 98.391Q3.94243 98.4873 3.91392 98.5813Q3.88542 98.6752 3.84783 98.766Q3.81025 98.8567 3.76396 98.9433Q3.71767 99.0299 3.66311 99.1116Q3.60855 99.1933 3.54625 99.2692Q3.48395 99.3451 3.41451 99.4145Q3.34507 99.4839 3.26915 99.5462Q3.19324 99.6086 3.11158 99.6631Q3.02993 99.7177 2.94332 99.764Q2.85671 99.8102 2.76598 99.8478Q2.67525 99.8854 2.58128 99.9139Q2.4873 99.9424 2.39099 99.9616Q2.29467 99.9807 2.19694 99.9904Q2.0992 100 2.001 100L1.999 100Q1.9008 100 1.80306 99.9904Q1.70533 99.9807 1.60901 99.9616Q1.5127 99.9424 1.41872 99.9139Q1.32474 99.8854 1.23402 99.8478Q1.14329 99.8102 1.05668 99.764Q0.970069 99.7177 0.888415 99.6631Q0.806761 99.6085 0.730848 99.5462Q0.654935 99.4839 0.585494 99.4145Q0.516052 99.3451 0.453752 99.2692Q0.391452 99.1933 0.336892 99.1116Q0.282333 99.0299 0.236039 98.9433Q0.189746 98.8567 0.152165 98.766Q0.114584 98.6752 0.0860763 98.5813Q0.057569 98.4873 0.0384102 98.391Q0.0192515 98.2947 0.00962573 98.1969Q0 98.0992 0 98.001L0 1.999Q0 1.9008 0.00962573 1.80306Q0.0192515 1.70533 0.0384102 1.60901Q0.057569 1.5127 0.0860763 1.41872Q0.114584 1.32474 0.152165 1.23402Q0.189746 1.14329 0.236039 1.05668Q0.282333 0.970069 0.336892 0.888415Q0.391452 0.806761 0.453752 0.730848Q0.516052 0.654935 0.585494 0.585494Q0.654935 0.516052 0.730848 0.453752Q0.806761 0.391452 0.888415 0.336892Q0.970069 0.282333 1.05668 0.236039Q1.14329 0.189746 1.23402 0.152165Q1.32474 0.114584 1.41872 0.0860763Q1.5127 0.057569 1.60901 0.0384102Q1.70533 0.0192515 1.80306 0.00962573Q1.9008 0 1.999 0L1.999 0Z" transform="matrix(0.8910065 0.4539905 -0.4539905 0.8910065 45.399067 32.4831)" id="Rectangle-2" fill="#000000" stroke="none" />
      <g id="Error-top" transform="translate(8.728119 0)">
        <path d="M35.7661 4.01888L60.1717 35.175Q60.2579 35.285 60.3362 35.4007Q60.4144 35.5165 60.4845 35.6374Q60.5545 35.7583 60.6159 35.8838Q60.6773 36.0093 60.7297 36.1388Q60.7822 36.2683 60.8256 36.4012Q60.8689 36.534 60.9028 36.6696Q60.9368 36.8051 60.9612 36.9427Q60.9856 37.0803 61.0003 37.2192Q61.015 37.3582 61.02 37.4978Q61.025 37.6374 61.0203 37.7771Q61.0155 37.9167 61.001 38.0557Q60.9866 38.1947 60.9624 38.3323Q60.9382 38.4699 60.9045 38.6055Q60.8708 38.7411 60.8278 38.874Q60.7847 39.007 60.7324 39.1366Q60.6802 39.2661 60.619 39.3918Q60.5578 39.5174 60.488 39.6384Q60.4182 39.7595 60.3402 39.8754Q60.2621 39.9913 60.1761 40.1014Q60.0902 40.2116 59.9967 40.3154Q59.9033 40.4193 59.8028 40.5164Q59.7023 40.6135 59.5953 40.7034Q59.4883 40.7932 59.3753 40.8754Q59.2623 40.9576 59.1438 41.0317Q59.0254 41.1058 58.902 41.1714Q58.7786 41.237 58.651 41.2939Q58.5234 41.3507 58.3921 41.3986Q58.2608 41.4464 58.1265 41.4849Q57.9922 41.5234 57.8555 41.5525Q57.7188 41.5816 57.5805 41.601Q57.4421 41.6205 57.3027 41.6302Q57.1633 41.64 57.0236 41.64L8.2124 41.64Q8.07267 41.64 7.93328 41.6302Q7.7939 41.6205 7.65553 41.601Q7.51717 41.5816 7.3805 41.5525Q7.24382 41.5234 7.10952 41.4849Q6.97521 41.4464 6.84392 41.3986Q6.71262 41.3507 6.58499 41.2939Q6.45736 41.237 6.334 41.1714Q6.21065 41.1058 6.09218 41.0317Q5.9737 40.9576 5.86069 40.8754Q5.74768 40.7932 5.64068 40.7034Q5.53367 40.6135 5.4332 40.5164Q5.33274 40.4193 5.23929 40.3154Q5.14584 40.2116 5.05988 40.1014Q4.97391 39.9913 4.89584 39.8754Q4.81777 39.7595 4.74797 39.6384Q4.67818 39.5174 4.61701 39.3918Q4.55584 39.2661 4.50358 39.1365Q4.45133 39.007 4.40824 38.874Q4.36516 38.7411 4.33146 38.6055Q4.29776 38.4699 4.2736 38.3323Q4.24945 38.1947 4.23496 38.0557Q4.22047 37.9167 4.21572 37.7771Q4.21096 37.6374 4.21596 37.4978Q4.22097 37.3582 4.23571 37.2192Q4.25044 37.0803 4.27484 36.9427Q4.29924 36.8051 4.33319 36.6696Q4.36713 36.534 4.41045 36.4012Q4.45377 36.2683 4.50626 36.1388Q4.55875 36.0093 4.62014 35.8838Q4.68154 35.7583 4.75155 35.6374Q4.82156 35.5165 4.89983 35.4007Q4.97811 35.285 5.06427 35.175L29.4699 4.01888Q29.5397 3.9297 29.6145 3.84461Q29.6893 3.75952 29.7688 3.67881Q29.8483 3.59809 29.9323 3.52201Q30.0162 3.44592 30.1043 3.37471Q30.1924 3.3035 30.2844 3.23739Q30.3764 3.17128 30.472 3.11049Q30.5676 3.04969 30.6665 2.99441Q30.7654 2.93912 30.8672 2.88952Q30.9691 2.83993 31.0736 2.79617Q31.1781 2.75242 31.2849 2.71465Q31.3917 2.67689 31.5005 2.64523Q31.6093 2.61357 31.7197 2.58812Q31.83 2.56267 31.9417 2.54351Q32.0534 2.52435 32.1659 2.51155Q32.2785 2.49874 32.3916 2.49233Q32.5047 2.48591 32.618 2.48591Q32.7313 2.48591 32.8444 2.49233Q32.9575 2.49874 33.0701 2.51155Q33.1826 2.52435 33.2943 2.54351Q33.4059 2.56267 33.5163 2.58812Q33.6267 2.61357 33.7355 2.64523Q33.8443 2.67689 33.9511 2.71465Q34.0579 2.75242 34.1624 2.79617Q34.2669 2.83993 34.3688 2.88952Q34.4706 2.93912 34.5695 2.99441Q34.6684 3.04969 34.764 3.11049Q34.8596 3.17128 34.9516 3.23739Q35.0436 3.3035 35.1317 3.37471Q35.2198 3.44592 35.3037 3.52201Q35.3877 3.59809 35.4672 3.67881Q35.5467 3.75952 35.6215 3.84461Q35.6963 3.9297 35.7661 4.01888L35.7661 4.01888Z" transform="matrix(0.89879405 0.43837115 -0.43837115 0.89879405 18.253784 9.536743E-07)" id="Triangle" fill="#DE8708" stroke="none" />
        <g id="?" fill="#FFFFFF" transform="matrix(0.88294756 0.46947157 -0.46947157 0.88294756 31.903776 15.241449)">
          <path d="M14.627 21.5498L13.04 21.5498L13.04 17.6016Q14.1699 17.1445 14.938 16.5415Q15.7061 15.9385 16.1694 15.2339Q16.6328 14.5293 16.8296 13.7612Q17.0264 12.9932 17.0264 12.2188Q17.0264 11.5459 16.8613 10.9937Q16.6963 10.4414 16.3535 10.0542Q16.0107 9.66699 15.4712 9.45117Q14.9316 9.23535 14.1826 9.23535Q13.3701 9.23535 12.8179 9.50195Q12.2656 9.76855 11.9229 10.2256Q11.5801 10.6826 11.4277 11.2856Q11.2754 11.8887 11.2754 12.5615Q10.8057 12.5615 10.4121 12.4536Q10.0186 12.3457 9.73291 12.1362Q9.44727 11.9268 9.28223 11.6094Q9.11719 11.292 9.11719 10.873Q9.11719 10.251 9.40283 9.71777Q9.68848 9.18457 10.2915 8.79102Q10.8945 8.39746 11.8086 8.17529Q12.7227 7.95313 13.9795 7.95313Q15.2109 7.95313 16.252 8.27051Q17.293 8.58789 18.0547 9.19092Q18.8164 9.79395 19.248 10.6699Q19.6797 11.5459 19.6797 12.6631Q19.6797 13.7295 19.3433 14.6055Q19.0068 15.4814 18.3594 16.2051Q17.7119 16.9287 16.7725 17.5254Q15.833 18.1221 14.627 18.6172L14.627 21.5498ZM12.1641 25.1934Q12.1641 24.6855 12.291 24.3491Q12.418 24.0127 12.6401 23.8096Q12.8623 23.6064 13.1606 23.5176Q13.459 23.4287 13.8018 23.4287Q14.1318 23.4287 14.4302 23.5176Q14.7285 23.6064 14.9507 23.8096Q15.1729 24.0127 15.3062 24.3491Q15.4395 24.6855 15.4395 25.1934Q15.4395 25.6885 15.3062 26.0313Q15.1729 26.374 14.9507 26.5771C14.8026 26.7126 14.6291 26.8099 14.4302 26.8691Q14.1318 26.958 13.8018 26.958Q13.459 26.958 13.1606 26.8691C12.9618 26.8099 12.7882 26.7126 12.6401 26.5771Q12.418 26.374 12.291 26.0313Q12.1641 25.6885 12.1641 25.1934Z" />
        </g>
      </g>
    </g>
    <g fill="#D11616" stroke="none" id="EROOR" transform="translate(65 168.94144)">
      <path d="M76.04 14.98Q75.24 14.48 74.48 14.16Q73.84 13.88 73.28 13.78Q72.72 13.68 72.08 13.68Q70.12 13.68 68.26 14.76Q66.4 15.84 64.78 17.66Q63.16 19.48 61.8 21.86Q60.44 24.24 59.46 26.88Q58.48 29.52 57.94 32.24Q57.4 34.96 57.4 37.4Q57.4 41.96 59.34 44.3Q61.28 46.64 64.96 46.64Q67.48 46.64 70.2 45.48Q72.92 44.32 75.32 42.2Q77.16 40.6 78.76 38.48Q80.36 36.36 81.54 33.92Q82.72 31.48 83.38 28.78Q84.04 26.08 84.04 23.28Q84.04 21.56 83.7 20.48Q83.36 19.4 82.86 18.74Q82.36 18.08 81.78 17.74Q81.2 17.4 80.72 17.16Q80.76 17.36 80.8 17.64Q80.84 17.92 80.9 18.38Q80.96 18.84 81 19.5Q81.04 20.16 81.04 21.12Q81.04 23.56 80.62 26.1Q80.2 28.64 79.42 31.04Q78.64 33.44 77.52 35.58Q76.4 37.72 75 39.4Q74.04 40.56 72.92 41.52Q71.8 42.48 70.64 43.16Q69.48 43.84 68.36 44.22Q67.24 44.6 66.28 44.6Q64.28 44.6 63.24 43.08Q62.2 41.56 62.2 38.44Q62.2 36.04 62.76 33.56Q63.32 31.08 64.3 28.76Q65.28 26.44 66.64 24.4Q68 22.36 69.6 20.84Q71.2 19.32 72.98 18.44Q74.76 17.56 76.56 17.56Q77.12 17.56 77.8 17.62Q78.48 17.68 79.16 17.84Q79.12 17.52 78.66 17.02Q78.2 16.52 77.52 16Q76.84 15.48 76.04 14.98ZM103.4 14.16Q104.16 14.48 104.96 14.98Q105.76 15.48 106.44 16Q107.12 16.52 107.58 17.02Q108.04 17.52 108.08 17.84Q107.4 17.68 106.72 17.62Q106.04 17.56 105.48 17.56Q103.68 17.56 101.9 18.44Q100.12 19.32 98.52 20.84Q96.92 22.36 95.56 24.4Q94.2 26.44 93.22 28.76Q92.24 31.08 91.68 33.56Q91.12 36.04 91.12 38.44Q91.12 41.56 92.16 43.08Q93.2 44.6 95.2 44.6Q96.16 44.6 97.28 44.22Q98.4 43.84 99.56 43.16Q100.72 42.48 101.84 41.52Q102.96 40.56 103.92 39.4Q105.32 37.72 106.44 35.58Q107.56 33.44 108.34 31.04Q109.12 28.64 109.54 26.1Q109.96 23.56 109.96 21.12Q109.96 20.16 109.92 19.5Q109.88 18.84 109.82 18.38Q109.76 17.92 109.72 17.64Q109.68 17.36 109.64 17.16Q110.12 17.4 110.7 17.74Q111.28 18.08 111.78 18.74Q112.28 19.4 112.62 20.48Q112.96 21.56 112.96 23.28Q112.96 26.08 112.3 28.78Q111.64 31.48 110.46 33.92Q109.28 36.36 107.68 38.48Q106.08 40.6 104.24 42.2Q101.84 44.32 99.12 45.48Q96.4 46.64 93.88 46.64Q90.2 46.64 88.26 44.3Q86.32 41.96 86.32 37.4Q86.32 34.96 86.86 32.24Q87.4 29.52 88.38 26.88Q89.36 24.24 90.72 21.86Q92.08 19.48 93.7 17.66Q95.32 15.84 97.18 14.76Q99.04 13.68 101 13.68Q101.64 13.68 102.2 13.78Q102.76 13.88 103.4 14.16ZM20.56 26.24Q21.88 26.24 22.62 26.96Q23.36 27.68 23.36 28.96Q23.36 29.28 23.3 29.62Q23.24 29.96 23.16 30.2Q22.64 30.12 22 30.06Q21.36 30 20.48 30Q18.76 30 17 30.3003Q15.24 30.6006 13.64 30.8012Q12.72 32.9244 11.96 34.9075Q11.2 36.8906 10.66 38.5331Q10.12 40.1756 9.82 41.3775Q9.52 42.5794 9.48 43.18Q12.72 42.4419 16.02 41.9209Q19.32 41.4 22.96 41.4Q23.4 42.0606 23.7 42.8384Q24 43.6162 24 44.51L24 45.0159Q24 45.2881 23.92 45.56L15.82 45.56Q14.64 45.56 13.44 45.6878Q12.24 45.8156 10.9 46.0287Q9.56 46.2419 7.88 46.54Q6.04 45.82 4.32 43.02Q5 41.5775 6.22 38.6328Q7.44 35.6881 9.32 30.76Q7.52 30.2 6.96 28.76Q7.16 28.56 8.12 28.26Q9.08 27.96 10.48 27.64Q11.08 26.08 11.5 24.92Q11.92 23.76 12.24 22.74Q12.56 21.72 12.82 20.74Q13.08 19.76 13.32 18.6Q11.92 18.6 11.12 17.8894Q10.32 17.1788 10.32 16.0419Q10.32 15.7169 10.42 15.2703Q10.52 14.8237 10.64 14.4987Q11.44 14.56 12.18 14.56L18.84 14.56Q21.04 14.56 22.82 14.3572Q24.6 14.1544 25.88 13.9772Q27.16 13.8 27.84 13.8Q28.76 13.8 29.48 14.7616Q30.2 15.7231 30.56 17.4862Q29.32 17.32 28.54 17.32L27.16 17.32Q24.96 17.32 23.14 17.5391Q21.32 17.7581 19.64 17.9969Q19.4 18.3556 19.1 18.9131Q18.8 19.4706 18.32 20.4666Q17.84 21.4625 17.14 22.9759Q16.44 24.4894 15.44 26.76Q16.96 26.52 18.3 26.38Q19.64 26.24 20.56 26.24ZM55.6 21.24Q55.6 23.16 54.74 24.86Q53.88 26.56 52.36 27.9Q50.84 29.24 48.8 30.16Q46.76 31.08 44.36 31.4Q44.96 33.2 45.82 35.1Q46.68 37 47.68 38.76Q48.68 40.52 49.76 42Q50.84 43.48 51.88 44.44Q51.68 44.84 51.3 45.24Q50.92 45.64 50.42 45.98Q49.92 46.32 49.38 46.54Q48.84 46.76 48.36 46.76Q47.48 46.76 46.68 45.92Q45.88 45.08 45.06 43.26Q44.24 41.44 43.34 38.54Q42.44 35.64 41.36 31.56L40.48 31.56Q40.04 31.56 39.8 31.48Q39.52 31.32 39.2 30.92Q38.12 33.24 37.28 35.28Q36.44 37.32 35.78 39.22Q35.12 41.12 34.62 42.9Q34.12 44.68 33.76 46.52Q32.4 46.2 31.4 45.36Q30.4 44.52 29.52 43Q29.68 42.64 29.86 42.3Q30.04 41.96 30.32 41.34Q30.6 40.72 31.02 39.76L32.14 37.2Q32.84 35.6 33.82 33.28Q34.8 30.96 36.2 27.64Q36.84 26.16 37.3 25.04Q37.76 23.92 38.12 22.9Q38.48 21.88 38.78 20.86Q39.08 19.84 39.4 18.52Q37.56 19.16 35.98 19.94Q34.4 20.72 33.36 21.6Q33 21.36 32.62 20.88Q32.24 20.4 31.92 19.82Q31.6 19.24 31.36 18.64Q31.12 18.04 31.08 17.56Q32.28 16.76 34.02 16.08Q35.76 15.4 37.72 14.9Q39.68 14.4 41.72 14.12Q43.76 13.84 45.52 13.84Q50.32 13.84 52.96 15.82Q55.6 17.8 55.6 21.24ZM140.22 24.86Q141.08 23.16 141.08 21.24Q141.08 17.8 138.44 15.82Q135.8 13.84 131 13.84Q129.24 13.84 127.2 14.12Q125.16 14.4 123.2 14.9Q121.24 15.4 119.5 16.08Q117.76 16.76 116.56 17.56Q116.6 18.04 116.84 18.64Q117.08 19.24 117.4 19.82Q117.72 20.4 118.1 20.88Q118.48 21.36 118.84 21.6Q119.88 20.72 121.46 19.94Q123.04 19.16 124.88 18.52Q124.56 19.84 124.26 20.86Q123.96 21.88 123.6 22.9Q123.24 23.92 122.78 25.04Q122.32 26.16 121.68 27.64Q120.28 30.96 119.3 33.28Q118.32 35.6 117.62 37.2L116.5 39.76Q116.08 40.72 115.8 41.34Q115.52 41.96 115.34 42.3Q115.16 42.64 115 43Q115.88 44.52 116.88 45.36Q117.88 46.2 119.24 46.52Q119.6 44.68 120.1 42.9Q120.6 41.12 121.26 39.22Q121.92 37.32 122.76 35.28Q123.6 33.24 124.68 30.92Q125 31.32 125.28 31.48Q125.52 31.56 125.96 31.56L126.84 31.56Q127.92 35.64 128.82 38.54Q129.72 41.44 130.54 43.26Q131.36 45.08 132.16 45.92Q132.96 46.76 133.84 46.76Q134.32 46.76 134.86 46.54Q135.4 46.32 135.9 45.98Q136.4 45.64 136.78 45.24Q137.16 44.84 137.36 44.44Q136.32 43.48 135.24 42Q134.16 40.52 133.16 38.76Q132.16 37 131.3 35.1Q130.44 33.2 129.84 31.4Q132.24 31.08 134.28 30.16Q136.32 29.24 137.84 27.9Q139.36 26.56 140.22 24.86ZM45.84 17.88Q45.56 18.24 44.96 19.32Q44.36 20.4 43.58 21.9Q42.8 23.4 41.94 25.16Q41.08 26.92 40.28 28.64Q43.28 28.64 45.8 28.08Q48.32 27.52 50.16 26.5Q52 25.48 53.02 24.1Q54.04 22.72 54.04 21.04Q54.04 19.04 52.6 17.98Q51.16 16.92 48.16 16.92Q47.48 16.92 46.8 16.98Q46.12 17.04 45.36 17.12L45.84 17.88ZM130.44 19.32Q131.04 18.24 131.32 17.88L130.84 17.12Q131.6 17.04 132.28 16.98Q132.96 16.92 133.64 16.92Q136.64 16.92 138.08 17.98Q139.52 19.04 139.52 21.04Q139.52 22.72 138.5 24.1Q137.48 25.48 135.64 26.5Q133.8 27.52 131.28 28.08Q128.76 28.64 125.76 28.64Q126.56 26.92 127.42 25.16Q128.28 23.4 129.06 21.9Q129.84 20.4 130.44 19.32Z" />
    </g>
    <path d="M0 21.5452L18 0L57 20.8421L86 20.8421L133 0L158 36" transform="translate(47 280.94144)" id="New-shape" fill="none" stroke="#808080" stroke-width="1" />
    <path d="M12 0L33 25L15 70L15 100L0 137.742L15 206" transform="translate(32 97.941444)" id="New-shape-2" fill="none" stroke="#808080" stroke-width="1" />
  </g>
</svg>